<svg width="28" height="28" viewBox="0 0 28 28" fill="none" xmlns="http://www.w3.org/2000/svg">
<path d="M25.4805 23.5867C26.3161 22.4667 26.8895 21.1733 27.1584 19.802C27.4274 18.4307 27.3849 17.0165 27.0343 15.6638C26.6836 14.3111 26.0337 13.0544 25.1324 11.9864C24.2312 10.9184 23.1016 10.0665 21.8271 9.4934C21.5495 7.89621 20.9115 6.3833 19.9616 5.06963C19.0116 3.75597 17.7748 2.67611 16.3449 1.91211C14.9151 1.14811 13.3299 0.720075 11.7099 0.660521C10.0898 0.600967 8.47752 0.911463 6.99546 1.56842C5.51339 2.22537 4.20057 3.2115 3.15674 4.45187C2.1129 5.69225 1.36553 7.15423 0.971402 8.72673C0.577273 10.2992 0.546759 11.9409 0.882179 13.527C1.2176 15.113 1.91013 16.6018 2.90714 17.8801L1.05381 19.7201C0.868799 19.9076 0.743471 20.1457 0.693639 20.4043C0.643807 20.663 0.671704 20.9306 0.773809 21.1734C0.873836 21.4169 1.0437 21.6253 1.26199 21.7724C1.48029 21.9196 1.73724 21.9988 2.00048 22.0001H9.58714C10.3427 23.5929 11.5339 24.9391 13.0228 25.883C14.5118 26.8269 16.2376 27.3297 18.0005 27.3334H26.0005C26.2637 27.3321 26.5207 27.2529 26.739 27.1058C26.9573 26.9587 27.1271 26.7502 27.2271 26.5067C27.3292 26.2639 27.3571 25.9963 27.3073 25.7377C27.2575 25.479 27.1322 25.2409 26.9471 25.0534L25.4805 23.5867ZM8.66714 18.0001C8.66897 18.4466 8.70463 18.8923 8.77381 19.3334H5.21381L5.68048 18.8801C5.80545 18.7561 5.90464 18.6087 5.97233 18.4462C6.04002 18.2837 6.07487 18.1094 6.07487 17.9334C6.07487 17.7574 6.04002 17.5831 5.97233 17.4206C5.90464 17.2582 5.80545 17.1107 5.68048 16.9867C4.93322 16.2477 4.34081 15.3671 3.93788 14.3964C3.53495 13.4257 3.32959 12.3844 3.33381 11.3334C3.33381 9.21167 4.17666 7.17684 5.67696 5.67655C7.17725 4.17626 9.21208 3.3334 11.3338 3.3334C12.9894 3.32345 14.6065 3.83258 15.9577 4.78922C17.309 5.74586 18.3265 7.10191 18.8671 8.66674C18.5738 8.66674 18.2938 8.66674 18.0005 8.66674C15.5251 8.66674 13.1512 9.65007 11.4008 11.4004C9.65047 13.1507 8.66714 15.5247 8.66714 18.0001ZM22.7205 24.6667L22.7871 24.7334H18.0005C16.4583 24.7306 14.9647 24.1933 13.7742 23.2129C12.5838 22.2324 11.77 20.8696 11.4717 19.3565C11.1733 17.8434 11.4088 16.2737 12.1379 14.9148C12.8671 13.5558 14.0448 12.4917 15.4705 11.9037C16.8963 11.3157 18.4818 11.2401 19.9569 11.69C21.4321 12.1398 22.7056 13.0872 23.5607 14.3707C24.4157 15.6542 24.7993 17.1944 24.6461 18.729C24.4929 20.2636 23.8124 21.6976 22.7205 22.7867C22.4693 23.0329 22.3255 23.3684 22.3205 23.7201C22.3212 23.8965 22.3569 24.071 22.4256 24.2335C22.4943 24.396 22.5945 24.5433 22.7205 24.6667V24.6667Z" fill="#d9d9d9"/>
</svg>
