<svg width="68" height="68" viewBox="0 0 68 68" fill="none" xmlns="http://www.w3.org/2000/svg">
<g filter="url(#filter0_d_1502_1694)">
<circle cx="33.6258" cy="29.6258" r="29.6258" fill="white"/>
<path d="M48.4146 26.6517H47.1983V26.5891H33.6085V32.6289H42.1421C40.8972 36.1449 37.5518 38.6688 33.6085 38.6688C28.6052 38.6688 24.5487 34.6123 24.5487 29.609C24.5487 24.6057 28.6052 20.5492 33.6085 20.5492C35.918 20.5492 38.0191 21.4204 39.619 22.8436L43.8899 18.5726C41.1931 16.0593 37.5858 14.5093 33.6085 14.5093C25.2697 14.5093 18.5088 21.2702 18.5088 29.609C18.5088 37.9478 25.2697 44.7087 33.6085 44.7087C41.9473 44.7087 48.7082 37.9478 48.7082 29.609C48.7082 28.5966 48.6041 27.6083 48.4146 26.6517Z" fill="#FFC107"/>
<path d="M20.249 22.5808L25.21 26.2191C26.5524 22.8957 29.8034 20.5492 33.6077 20.5492C35.9173 20.5492 38.0184 21.4204 39.6182 22.8436L43.8892 18.5726C41.1923 16.0593 37.585 14.5093 33.6077 14.5093C27.8079 14.5093 22.7782 17.7837 20.249 22.5808Z" fill="#FF3D00"/>
<path d="M33.6085 44.7089C37.5088 44.7089 41.0527 43.2163 43.7322 40.789L39.0588 36.8344C37.5428 37.9828 35.6583 38.669 33.6085 38.669C29.6811 38.669 26.3463 36.1648 25.09 32.6699L20.166 36.4637C22.665 41.3538 27.74 44.7089 33.6085 44.7089Z" fill="#4CAF50"/>
<path d="M48.4144 26.6515H47.1982V26.5889H33.6084V32.6288H42.142C41.5441 34.3177 40.4576 35.774 39.0564 36.8348C39.0571 36.834 39.0579 36.834 39.0586 36.8333L43.732 40.7879C43.4013 41.0884 48.7081 37.1587 48.7081 29.6088C48.7081 28.5964 48.6039 27.6081 48.4144 26.6515Z" fill="#1976D2"/>
</g>
<defs>
<filter id="filter0_d_1502_1694" x="0" y="0" width="67.252" height="67.2515" filterUnits="userSpaceOnUse" color-interpolation-filters="sRGB">
<feFlood flood-opacity="0" result="BackgroundImageFix"/>
<feColorMatrix in="SourceAlpha" type="matrix" values="0 0 0 0 0 0 0 0 0 0 0 0 0 0 0 0 0 0 127 0" result="hardAlpha"/>
<feOffset dy="4"/>
<feGaussianBlur stdDeviation="2"/>
<feComposite in2="hardAlpha" operator="out"/>
<feColorMatrix type="matrix" values="0 0 0 0 0 0 0 0 0 0 0 0 0 0 0 0 0 0 0.25 0"/>
<feBlend mode="normal" in2="BackgroundImageFix" result="effect1_dropShadow_1502_1694"/>
<feBlend mode="normal" in="SourceGraphic" in2="effect1_dropShadow_1502_1694" result="shape"/>
</filter>
</defs>
</svg>
