<svg width="20" height="29" viewBox="0 0 20 29" fill="none" xmlns="http://www.w3.org/2000/svg">
<path fill-rule="evenodd" clip-rule="evenodd" d="M18.1675 14.6427C19.0094 13.2455 19.4937 11.6084 19.4937 9.85817C19.4937 4.73078 15.3371 0.574219 10.2097 0.574219C5.08235 0.574219 0.925781 4.73078 0.925781 9.85817C0.925781 11.6036 1.40746 13.2366 2.24515 14.6313L10.2096 28.4262L18.1675 14.6427Z" fill="white"/>
<circle cx="10.0846" cy="10.355" r="2.35417" fill="#FDC500"/>
<circle cx="7.76237" cy="12.6778" r="2.35417" fill="#FDC500"/>
<circle cx="12.4079" cy="12.6778" r="2.35417" fill="#FDC500"/>
<path d="M10.0216 14.8436C8.64048 14.8436 8.07547 15.0634 7.7302 15.032C7.38492 15.0006 7.63603 13.9648 7.63603 13.9648L8.8602 11.8617L12.2188 12.3325C12.2188 12.3325 12.6897 14.9692 12.4071 15.032C12.1246 15.0948 11.4027 14.8436 10.0216 14.8436Z" fill="#FDC500"/>
<path d="M7.35489 9.91531C7.65622 9.6642 8.171 9.0155 8.39072 8.72253L8.171 10.857L6.16211 10.9511C6.43415 10.7105 7.05355 10.1664 7.35489 9.91531Z" fill="#FDC500"/>
<path d="M12.8617 9.96348C12.5561 9.70884 12.0341 9.051 11.8113 8.75391L12.0341 10.9184L14.0713 11.0139C13.7954 10.7699 13.1673 10.2181 12.8617 9.96348Z" fill="#FDC500"/>
<circle cx="8.10962" cy="5.48962" r="1.82056" fill="#FDC500"/>
<circle cx="12.1262" cy="5.48962" r="1.82056" fill="#FDC500"/>
<circle cx="15.0139" cy="8.75415" r="1.82056" fill="#FDC500"/>
<circle cx="5.22095" cy="8.75415" r="1.82056" fill="#FDC500"/>
</svg>
