<svg width="42" height="63" viewBox="0 0 42 63" fill="none" xmlns="http://www.w3.org/2000/svg">
<path fill-rule="evenodd" clip-rule="evenodd" d="M38.998 31.8261C40.9037 28.6648 42 24.9604 42 21C42 9.40202 32.598 0 21 0C9.40202 0 0 9.40202 0 21C0 24.9513 1.09125 28.6476 2.98882 31.8042L20.9997 63L38.998 31.8261Z" fill="#304FFE"/>
<circle cx="20.7245" cy="22.1234" r="5.32505" fill="white"/>
<circle cx="15.4696" cy="27.3773" r="5.32505" fill="white"/>
<circle cx="25.9774" cy="27.3773" r="5.32505" fill="white"/>
<path d="M20.5809 32.2763C17.4568 32.2763 16.1788 32.7733 15.3978 32.7023C14.6168 32.6313 15.1848 30.2883 15.1848 30.2883L17.9538 25.5312L25.5509 26.5963C25.5509 26.5963 26.6159 32.5603 25.9769 32.7023C25.3379 32.8443 23.7049 32.2763 20.5809 32.2763Z" fill="white"/>
<path d="M14.5476 21.1292C15.2292 20.5612 16.3937 19.0938 16.8907 18.4312L16.3937 23.2592L11.8496 23.4722C12.4649 22.9279 13.866 21.6972 14.5476 21.1292Z" fill="white"/>
<path d="M27.0042 21.238C26.313 20.662 25.1322 19.174 24.6282 18.502L25.1322 23.398L29.7402 23.614C29.1162 23.062 27.6954 21.814 27.0042 21.238Z" fill="white"/>
<circle cx="16.2499" cy="11.118" r="4.11804" fill="white"/>
<circle cx="25.3378" cy="11.118" r="4.11804" fill="white"/>
<circle cx="31.87" cy="18.5023" r="4.11804" fill="white"/>
<circle cx="9.71765" cy="18.5023" r="4.11804" fill="white"/>
</svg>
