<svg width="77" height="86" viewBox="0 0 77 86" fill="none" xmlns="http://www.w3.org/2000/svg">
<rect width="77" height="86" rx="15" fill="#F5F5F5"/>
<g clip-path="url(#clip0_540_1361)">
<path d="M39.8901 38.8334H38.0608V42.1667H34.4023V43.8334H38.0608V47.1667H39.8901V43.8334H43.5486V42.1667H39.8901V38.8334ZM38.9754 34.6667C33.9358 34.6667 29.8291 38.4084 29.8291 43.0001C29.8291 47.5917 33.9358 51.3334 38.9754 51.3334C44.0151 51.3334 48.1218 47.5917 48.1218 43.0001C48.1218 38.4084 44.0151 34.6667 38.9754 34.6667ZM38.9754 49.6667C34.9419 49.6667 31.6584 46.6751 31.6584 43.0001C31.6584 39.3251 34.9419 36.3334 38.9754 36.3334C43.009 36.3334 46.2925 39.3251 46.2925 43.0001C46.2925 46.6751 43.009 49.6667 38.9754 49.6667Z" fill="#323232"/>
</g>
<defs>
<clipPath id="clip0_540_1361">
<rect width="21.9512" height="20" fill="white" transform="translate(28 33)"/>
</clipPath>
</defs>
</svg>
