<svg width="68" height="68" viewBox="0 0 68 68" fill="none" xmlns="http://www.w3.org/2000/svg">
<g filter="url(#filter0_d_1502_1696)">
<circle cx="33.6258" cy="29.6258" r="29.6258" fill="#FFE812"/>
<path d="M33.5967 15.1836C24.5551 15.1836 17.2256 20.9628 17.2256 28.0916C17.2256 32.7005 20.2898 36.7447 24.8992 39.0283C24.6485 39.8931 23.2878 44.5919 23.2336 44.9611C23.2336 44.9611 23.201 45.2384 23.3807 45.3442C23.5603 45.45 23.7715 45.3678 23.7715 45.3678C24.2866 45.2959 29.7443 41.4622 30.6889 40.7965C31.6326 40.9302 32.6044 40.9996 33.5967 40.9996C42.6383 40.9996 49.9678 35.2206 49.9678 28.0916C49.9678 20.9628 42.6383 15.1836 33.5967 15.1836Z" fill="black"/>
<path d="M24.5443 32.5975C24.0234 32.5975 23.5998 32.193 23.5998 31.6955V26.0845H22.1261C21.615 26.0845 21.1992 25.6695 21.1992 25.1597C21.1992 24.6498 21.6151 24.2349 22.1261 24.2349H26.9625C27.4736 24.2349 27.8893 24.6498 27.8893 25.1597C27.8893 25.6695 27.4734 26.0845 26.9625 26.0845H25.4888V31.6955C25.4888 32.193 25.0652 32.5975 24.5443 32.5975ZM32.8262 32.5852C32.4323 32.5852 32.131 32.4253 32.0402 32.1681L31.5725 30.9437L28.6925 30.9436L28.2245 32.1687C28.134 32.4255 27.8328 32.5852 27.439 32.5852C27.2318 32.5854 27.027 32.541 26.8386 32.4549C26.5782 32.3348 26.3279 32.0045 26.6147 31.1137L28.874 25.1672C29.0331 24.715 29.5165 24.249 30.1317 24.235C30.7486 24.2489 31.232 24.715 31.3915 25.1682L33.6498 31.112C33.9372 32.0048 33.6869 32.3353 33.4265 32.455C33.2381 32.541 33.0333 32.5854 32.8262 32.5852C32.826 32.5852 32.8262 32.5852 32.8262 32.5852V32.5852ZM31.0759 29.2707L30.1325 26.5907L29.1891 29.2707H31.0759V29.2707ZM35.1698 32.4598C34.6706 32.4598 34.2646 32.0713 34.2646 31.594V25.1794C34.2646 24.6585 34.6972 24.2349 35.2288 24.2349C35.7604 24.2349 36.1929 24.6585 36.1929 25.1794V30.7282H38.2C38.6991 30.7282 39.1051 31.1167 39.1051 31.594C39.1051 32.0713 38.6991 32.4598 38.2 32.4598H35.1698ZM40.417 32.5852C39.8961 32.5852 39.4725 32.1616 39.4725 31.6407V25.1794C39.4725 24.6585 39.8961 24.2349 40.417 24.2349C40.9379 24.2349 41.3615 24.6585 41.3615 25.1794V27.2094L43.9966 24.5742C44.1322 24.4387 44.3184 24.3641 44.5205 24.3641C44.7563 24.3641 44.9931 24.4658 45.1705 24.643C45.3359 24.8083 45.4346 25.021 45.4481 25.2418C45.4618 25.4646 45.3877 25.6688 45.2397 25.8169L43.0874 27.9689L45.4122 31.0489C45.4873 31.1477 45.542 31.2604 45.5731 31.3805C45.6043 31.5006 45.6112 31.6257 45.5936 31.7486C45.5767 31.8715 45.5357 31.9898 45.4728 32.0967C45.4099 32.2037 45.3264 32.297 45.2271 32.3715C45.0638 32.4956 44.8642 32.5626 44.659 32.5621C44.5127 32.5628 44.3682 32.5292 44.2372 32.464C44.1062 32.3988 43.9922 32.3038 43.9045 32.1867L41.6895 29.2518L41.3618 29.5796V31.6403C41.3615 31.8908 41.2619 32.1309 41.0848 32.3081C40.9077 32.4852 40.6675 32.5849 40.417 32.5852V32.5852Z" fill="#FFE812"/>
</g>
<defs>
<filter id="filter0_d_1502_1696" x="0" y="0" width="67.252" height="67.2515" filterUnits="userSpaceOnUse" color-interpolation-filters="sRGB">
<feFlood flood-opacity="0" result="BackgroundImageFix"/>
<feColorMatrix in="SourceAlpha" type="matrix" values="0 0 0 0 0 0 0 0 0 0 0 0 0 0 0 0 0 0 127 0" result="hardAlpha"/>
<feOffset dy="4"/>
<feGaussianBlur stdDeviation="2"/>
<feComposite in2="hardAlpha" operator="out"/>
<feColorMatrix type="matrix" values="0 0 0 0 0 0 0 0 0 0 0 0 0 0 0 0 0 0 0.25 0"/>
<feBlend mode="normal" in2="BackgroundImageFix" result="effect1_dropShadow_1502_1696"/>
<feBlend mode="normal" in="SourceGraphic" in2="effect1_dropShadow_1502_1696" result="shape"/>
</filter>
</defs>
</svg>
