<svg width="158" height="33" viewBox="0 0 158 33" fill="none" xmlns="http://www.w3.org/2000/svg">
<path d="M48.3685 21.68V9.17674L52.0775 9.1385V21.9477C52.0775 22.4575 51.9628 22.8781 51.7333 23.2095C51.5294 23.5409 51.1853 23.8468 50.701 24.1272C50.1402 24.484 49.3627 24.8154 48.3685 25.1213C47.3744 25.4527 46.24 25.6184 44.9655 25.6184C43.0537 25.6184 41.3713 25.287 39.9183 24.6242C38.4908 23.9615 37.3692 22.9418 36.5535 21.5653C35.7633 20.1633 35.3682 18.3917 35.3682 16.2505C35.3682 14.0073 35.7633 12.1974 36.5535 10.8209C37.3692 9.4189 38.4526 8.38652 39.8036 7.72375C41.1546 7.06099 42.6458 6.72961 44.2772 6.72961C45.2714 6.72961 46.1891 6.85706 47.0303 7.11197C47.8715 7.36688 48.5342 7.68552 49.0186 8.06788V11.3944C48.5852 10.9356 47.9989 10.5532 47.2597 10.2474C46.5459 9.91597 45.7047 9.75028 44.7361 9.75028C43.7164 9.75028 42.786 9.96696 41.9448 10.4003C41.1036 10.8336 40.4281 11.5346 39.9183 12.5033C39.434 13.4465 39.1918 14.7083 39.1918 16.2887C39.1918 18.4809 39.7144 20.0741 40.7595 21.0683C41.8046 22.0624 43.1939 22.5595 44.9273 22.5595C45.743 22.5595 46.4185 22.4703 46.9538 22.2918C47.4891 22.1134 47.9607 21.9095 48.3685 21.68ZM52.0775 9.9797L48.3303 10.0179V0.267654C48.5087 0.216672 48.7509 0.16569 49.0568 0.114707C49.3882 0.0382356 49.7196 0 50.0509 0C50.7647 0 51.2745 0.127454 51.5804 0.382363C51.9118 0.637273 52.0775 1.08336 52.0775 1.72064V9.9797Z" fill="#304FFE"/>
<path d="M61.8923 22.6742C62.8354 22.6742 63.6384 22.585 64.3012 22.4065C64.9639 22.2026 65.4483 21.9987 65.7542 21.7947V16.7475L61.3952 17.2064C60.1971 17.2829 59.2922 17.5505 58.6804 18.0093C58.0941 18.4427 57.801 19.08 57.801 19.9212C57.801 20.7624 58.1324 21.4379 58.7951 21.9477C59.4834 22.432 60.5158 22.6742 61.8923 22.6742ZM61.8158 6.72961C64.1355 6.72961 65.9836 7.23943 67.3601 8.25906C68.7366 9.2787 69.4248 10.8846 69.4248 13.0768V22.0242C69.4248 22.6105 69.2974 23.0693 69.0425 23.4007C68.7876 23.7066 68.4434 23.9997 68.0101 24.2801C67.3473 24.637 66.4934 24.9429 65.4483 25.1978C64.4031 25.4782 63.2178 25.6184 61.8923 25.6184C59.4451 25.6184 57.5333 25.1468 56.1568 24.2036C54.7803 23.235 54.0921 21.833 54.0921 19.9976C54.0921 18.3152 54.6401 17.0279 55.7362 16.1358C56.8323 15.2436 58.3873 14.6955 60.4011 14.4916L65.7542 13.9563V13.0768C65.7542 11.9043 65.3718 11.0503 64.6071 10.515C63.8678 9.9797 62.8609 9.71205 61.5864 9.71205C60.5667 9.71205 59.5726 9.85225 58.6039 10.1326C57.6608 10.413 56.8196 10.7444 56.0803 11.1268C55.8509 10.9229 55.647 10.6807 55.4686 10.4003C55.2901 10.1199 55.2009 9.82676 55.2009 9.52086C55.2009 8.73064 55.6343 8.14435 56.5009 7.76199C57.1892 7.43061 57.9922 7.1757 58.9098 6.99726C59.853 6.81883 60.8217 6.72961 61.8158 6.72961Z" fill="#304FFE"/>
<path d="M88.2682 13.3445V17.1681H84.5211V13.5357C84.5211 12.2356 84.1514 11.2797 83.4122 10.668C82.673 10.0562 81.6916 9.75028 80.468 9.75028C79.5503 9.75028 78.7219 9.86499 77.9826 10.0944C77.2689 10.3238 76.6444 10.5915 76.109 10.8974V17.1681H72.3619V10.8591C72.3619 10.2983 72.4766 9.8395 72.706 9.48263C72.9609 9.10026 73.3433 8.74339 73.8531 8.41201C74.5668 7.97866 75.4973 7.5963 76.6444 7.26492C77.7914 6.90804 79.066 6.72961 80.468 6.72961C82.9151 6.72961 84.8269 7.27766 86.2035 8.37377C87.58 9.46988 88.2682 11.1268 88.2682 13.3445ZM72.3619 15.1799H76.109V25.0066C75.9561 25.0576 75.7267 25.1213 75.4208 25.1978C75.1149 25.2743 74.7835 25.3125 74.4266 25.3125C73.7384 25.3125 73.2158 25.185 72.859 24.9301C72.5276 24.6497 72.3619 24.2036 72.3619 23.5919V15.1799ZM84.5211 15.1799H88.2682V25.0066C88.1153 25.0576 87.8731 25.1213 87.5417 25.1978C87.2358 25.2743 86.9045 25.3125 86.5476 25.3125C85.8593 25.3125 85.3495 25.185 85.0181 24.9301C84.6867 24.6497 84.5211 24.2036 84.5211 23.5919V15.1799Z" fill="#304FFE"/>
<path d="M98.7695 24.5095C97.291 24.5095 95.9145 24.2291 94.64 23.6683C93.3909 23.082 92.384 22.1389 91.6193 20.8388C90.8546 19.5133 90.4722 17.7799 90.4722 15.6387C90.4722 13.6759 90.8546 12.0317 91.6193 10.7062C92.384 9.38066 93.4419 8.38652 94.7929 7.72375C96.1439 7.06099 97.7116 6.72961 99.496 6.72961C100.72 6.72961 101.841 6.88255 102.861 7.18844C103.906 7.49433 104.76 7.86395 105.423 8.2973C105.83 8.5777 106.162 8.89634 106.417 9.25321C106.672 9.58459 106.799 10.0052 106.799 10.515V22.3683H103.09V10.7062C102.682 10.4513 102.185 10.2346 101.599 10.0562C101.038 9.85225 100.35 9.75028 99.5342 9.75028C97.9538 9.75028 96.6665 10.2346 95.6723 11.2033C94.7037 12.1719 94.2194 13.6376 94.2194 15.6005C94.2194 17.7672 94.7037 19.2966 95.6723 20.1888C96.6665 21.081 97.8773 21.5271 99.3048 21.5271C100.35 21.5271 101.191 21.3487 101.828 20.9918C102.491 20.6094 103.026 20.2016 103.434 19.7682L103.587 22.9801C103.179 23.3624 102.568 23.7193 101.752 24.0507C100.936 24.3566 99.9421 24.5095 98.7695 24.5095ZM103.128 25.4654V21.5653H106.799V25.6566C106.799 27.339 106.417 28.7028 105.652 29.7479C104.887 30.8185 103.855 31.5833 102.555 32.0421C101.255 32.5264 99.7891 32.7686 98.1577 32.7686C96.8832 32.7686 95.7743 32.6284 94.8311 32.348C93.888 32.0931 93.2125 31.8509 92.8046 31.6215C92.0144 31.1627 91.6193 30.5509 91.6193 29.7862C91.6193 29.4038 91.7085 29.0597 91.8869 28.7538C92.0654 28.4734 92.2948 28.2567 92.5752 28.1038C93.136 28.5116 93.9007 28.8812 94.8694 29.2126C95.8635 29.544 96.9086 29.7097 98.0048 29.7097C99.6362 29.7097 100.898 29.3656 101.79 28.6773C102.682 27.989 103.128 26.9184 103.128 25.4654Z" fill="#304FFE"/>
<path d="M121.863 21.68V9.17674L125.572 9.1385V21.9477C125.572 22.4575 125.457 22.8781 125.228 23.2095C125.024 23.5409 124.68 23.8468 124.195 24.1272C123.635 24.484 122.857 24.8154 121.863 25.1213C120.869 25.4527 119.735 25.6184 118.46 25.6184C116.548 25.6184 114.866 25.287 113.413 24.6242C111.985 23.9615 110.864 22.9418 110.048 21.5653C109.258 20.1633 108.863 18.3917 108.863 16.2505C108.863 14.0073 109.258 12.1974 110.048 10.8209C110.864 9.4189 111.947 8.38652 113.298 7.72375C114.649 7.06099 116.14 6.72961 117.772 6.72961C118.766 6.72961 119.684 6.85706 120.525 7.11197C121.366 7.36688 122.029 7.68552 122.513 8.06788V11.3944C122.08 10.9356 121.493 10.5532 120.754 10.2474C120.04 9.91597 119.199 9.75028 118.231 9.75028C117.211 9.75028 116.281 9.96696 115.439 10.4003C114.598 10.8336 113.923 11.5346 113.413 12.5033C112.929 13.4465 112.686 14.7083 112.686 16.2887C112.686 18.4809 113.209 20.0741 114.254 21.0683C115.299 22.0624 116.688 22.5595 118.422 22.5595C119.238 22.5595 119.913 22.4703 120.448 22.2918C120.984 22.1134 121.455 21.9095 121.863 21.68ZM125.572 9.9797L121.825 10.0179V0.267654C122.003 0.216672 122.245 0.16569 122.551 0.114707C122.883 0.0382356 123.214 0 123.545 0C124.259 0 124.769 0.127454 125.075 0.382363C125.406 0.637273 125.572 1.08336 125.572 1.72064V9.9797Z" fill="#304FFE"/>
<path d="M130.263 18.3152L130.11 15.524L141.084 13.9563C141.008 12.7327 140.574 11.7131 139.784 10.8974C138.994 10.0817 137.898 9.67381 136.496 9.67381C135.017 9.67381 133.794 10.1964 132.825 11.2415C131.882 12.2611 131.397 13.7396 131.372 15.6769L131.41 17.0152C131.614 18.876 132.264 20.278 133.36 21.2212C134.482 22.1389 135.96 22.5977 137.796 22.5977C138.866 22.5977 139.848 22.432 140.74 22.1006C141.632 21.7693 142.333 21.3996 142.843 20.9918C143.149 21.1957 143.391 21.4379 143.569 21.7183C143.773 21.9987 143.875 22.3173 143.875 22.6742C143.875 23.235 143.595 23.7448 143.034 24.2036C142.473 24.637 141.721 24.9811 140.778 25.236C139.835 25.4909 138.764 25.6184 137.566 25.6184C135.603 25.6184 133.883 25.2615 132.404 24.5478C130.951 23.8085 129.817 22.7252 129.001 21.2977C128.186 19.8702 127.778 18.1113 127.778 16.0211C127.778 14.5171 127.994 13.1916 128.428 12.0445C128.887 10.8974 129.511 9.92872 130.301 9.1385C131.092 8.34828 132.009 7.74924 133.054 7.34139C134.125 6.93353 135.272 6.72961 136.496 6.72961C138.102 6.72961 139.516 7.06099 140.74 7.72375C141.963 8.38652 142.919 9.31694 143.608 10.515C144.296 11.7131 144.64 13.0768 144.64 14.6063C144.64 15.2436 144.487 15.7024 144.181 15.9828C143.901 16.2632 143.48 16.4417 142.919 16.5181L130.263 18.3152Z" fill="#304FFE"/>
<path d="M150.276 10.9738V16.6711H146.529V10.9356C146.529 10.3238 146.656 9.82675 146.911 9.44439C147.166 9.06203 147.561 8.69241 148.096 8.33554C148.81 7.8767 149.74 7.49433 150.887 7.18844C152.06 6.88255 153.335 6.72961 154.711 6.72961C156.903 6.72961 157.999 7.32864 157.999 8.52672C157.999 8.83261 157.948 9.11301 157.847 9.36792C157.77 9.62283 157.655 9.8395 157.502 10.0179C157.247 9.96696 156.916 9.91597 156.508 9.86499C156.126 9.81401 155.731 9.78852 155.323 9.78852C154.252 9.78852 153.284 9.90323 152.417 10.1326C151.576 10.3621 150.862 10.6425 150.276 10.9738ZM146.529 14.9887L150.276 15.371V25.0066C150.123 25.0576 149.893 25.1213 149.587 25.1978C149.282 25.2743 148.95 25.3125 148.593 25.3125C147.905 25.3125 147.382 25.185 147.026 24.9301C146.694 24.6497 146.529 24.2036 146.529 23.5919V14.9887Z" fill="#304FFE"/>
<path fill-rule="evenodd" clip-rule="evenodd" d="M21.6704 1.453C17.8336 1.453 16.3867 5.0019 16.1428 6.77634C16.1428 5.0019 15.0454 1.453 10.6559 1.453C5.85991 1.453 5.04703 5.19153 5.04703 6.77634C5.04703 11.4558 8.73899 14.4789 12.2105 17.3215L12.2106 17.3216L12.2107 17.3217C12.3508 17.4365 12.4907 17.5509 12.6298 17.6652H12.6182C12.7008 17.7443 12.7895 17.8246 12.881 17.9075C13.4342 18.4083 14.0921 19.0039 14.1503 20.004C14.148 20.0454 14.147 20.0872 14.1474 20.1293C14.151 20.5366 14.0316 21.1794 13.6599 21.7368C13.328 22.2345 12.7306 22.7696 11.5293 22.9835C10.0435 23.2481 9.28669 23.2563 8.35797 22.8572C7.27309 22.3911 5.80756 21.2973 3.26179 18.7586C2.51414 18.013 1.30364 18.0147 0.558073 18.7624C-0.187496 19.51 -0.185806 20.7205 0.561847 21.4661C3.12589 24.023 5.03513 25.5911 6.84835 26.3703C8.81773 27.2165 10.4824 27.0537 12.1997 26.7479C13.8952 26.446 15.1738 25.7194 16.0901 24.7841C17.0088 25.7313 18.2952 26.4686 20.0053 26.774C21.7273 27.0815 23.3965 27.2451 25.3709 26.3943C27.1884 25.6111 29.1022 24.035 31.6729 21.4642C32.4196 20.7176 32.4196 19.5071 31.6729 18.7605C30.9263 18.0139 29.7158 18.0139 28.9692 18.7605C26.4163 21.3134 24.9462 22.4138 23.8577 22.8828C22.9262 23.2843 22.1673 23.2759 20.6775 23.0099C19.4732 22.7948 18.8727 22.2566 18.5382 21.7536C18.2269 21.2855 18.0912 20.7576 18.0564 20.356C18.0266 19.0929 18.7678 18.3338 19.4475 17.715C19.573 17.6047 19.699 17.4942 19.8255 17.3832L19.8267 17.3821L19.8268 17.3821C23.2681 14.3626 26.9947 11.0928 26.9947 6.77634C26.9947 4.98835 26.4664 1.453 21.6704 1.453Z" fill="#304FFE"/>
</svg>
