<svg width="29" height="35" viewBox="0 0 29 35" fill="none" xmlns="http://www.w3.org/2000/svg">
<circle cx="12.1999" cy="12.2442" r="3.1168" transform="rotate(-32.0409 12.1999 12.2442)" fill="#D9D9D9"/>
<circle cx="11.2233" cy="16.4823" r="3.1168" transform="rotate(-32.0409 11.2233 16.4823)" fill="#D9D9D9"/>
<circle cx="16.4372" cy="13.2192" r="3.1168" transform="rotate(-32.0409 16.4372 13.2192)" fill="#D9D9D9"/>
<path d="M15.2818 17.3256C13.7318 18.2957 13.2521 18.9391 12.8425 19.1464C12.433 19.3537 11.9873 18.0148 11.9873 18.0148L11.8839 14.7948L15.9839 12.9641C15.9839 12.9641 18.3643 15.5925 18.0913 15.8614C17.8184 16.1302 16.8318 16.3555 15.2818 17.3256Z" fill="#D9D9D9"/>
<path d="M8.82583 13.6687C8.98763 13.1752 9.10971 12.0856 9.15052 11.6025L10.4031 14.1523L8.21476 15.669C8.35103 15.2078 8.66403 14.1621 8.82583 13.6687Z" fill="#D9D9D9"/>
<path d="M15.0409 9.85453C14.5191 9.78338 13.4712 9.41177 13.0125 9.23486L14.7829 11.5075L17.1362 10.1838C16.6552 10.1037 15.5627 9.92568 15.0409 9.85453Z" fill="#D9D9D9"/>
<circle cx="6.56311" cy="8.1725" r="2.41032" transform="rotate(-32.0409 6.56311 8.1725)" fill="#D9D9D9"/>
<circle cx="11.0719" cy="5.35048" r="2.41032" transform="rotate(-32.0409 11.0719 5.35048)" fill="#D9D9D9"/>
<circle cx="16.6061" cy="6.98586" r="2.41032" transform="rotate(-32.0409 16.6061 6.98586)" fill="#D9D9D9"/>
<circle cx="5.61486" cy="13.8645" r="2.41032" transform="rotate(-32.0409 5.61486 13.8645)" fill="#D9D9D9"/>
<circle cx="19.7031" cy="27.2703" r="2.38235" transform="rotate(30 19.7031 27.2703)" fill="#D9D9D9"/>
<circle cx="16.4911" cy="28.1307" r="2.38235" transform="rotate(30 16.4911 28.1307)" fill="#D9D9D9"/>
<circle cx="20.5634" cy="30.4814" r="2.38235" transform="rotate(30 20.5634 30.4814)" fill="#D9D9D9"/>
<path d="M17.3769 31.1725C16.1665 30.4737 15.5602 30.3804 15.2735 30.1782C14.9868 29.976 15.7309 29.1952 15.7309 29.1952L17.8679 27.9715L20.5731 30.0836C20.5731 30.0836 19.6517 32.6326 19.3723 32.5446C19.093 32.4567 18.5873 31.8713 17.3769 31.1725Z" fill="#D9D9D9"/>
<path d="M17.5307 25.5036C17.9218 25.436 18.7012 25.128 19.042 24.9824L17.7694 26.7418L15.9612 25.8079C16.3214 25.7346 17.1395 25.5712 17.5307 25.5036Z" fill="#D9D9D9"/>
<path d="M22.3338 28.3324C22.1948 27.9546 22.0702 27.114 22.0252 26.7409L21.1253 28.7506L22.8623 29.865C22.744 29.5116 22.4727 28.7102 22.3338 28.3324Z" fill="#D9D9D9"/>
<circle cx="20.4312" cy="22.006" r="1.84235" transform="rotate(30 20.4312 22.006)" fill="#D9D9D9"/>
<circle cx="23.9517" cy="24.0389" r="1.84235" transform="rotate(30 23.9517 24.0389)" fill="#D9D9D9"/>
<circle cx="24.8316" cy="28.3609" r="1.84235" transform="rotate(30 24.8316 28.3609)" fill="#D9D9D9"/>
<circle cx="16.2495" cy="23.406" r="1.84235" transform="rotate(30 16.2495 23.406)" fill="#D9D9D9"/>
</svg>
