<svg width="14" height="27" viewBox="0 0 14 27" fill="none" xmlns="http://www.w3.org/2000/svg">
  <path d="M13.6663 11.9066V1.99996C13.6663 1.26663 13.0663 0.666626 12.333 0.666626H1.66634C0.933008 0.666626 0.333008 1.26663 0.333008 1.99996V11.9066C0.333008 12.3733 0.573007 12.8133 0.986341 13.0533L6.55967 16.4L5.23967 19.52L2.27967 19.7733C1.66634 19.8266 1.42634 20.56 1.87967 20.9466L4.13301 22.8933L3.45301 25.8C3.31967 26.3733 3.94634 26.8266 4.45301 26.52L6.99967 24.9733L9.54634 26.5066C10.053 26.8133 10.6797 26.36 10.5463 25.7866L9.86634 22.88L12.1197 20.9333C12.5597 20.5466 12.333 19.8133 11.733 19.76L8.77301 19.5066L7.45301 16.3866L13.0263 13.04C13.4263 12.8133 13.6663 12.3866 13.6663 11.9066ZM8.33301 14.3066L6.99967 15.1066L5.66634 14.3066V1.99996H8.33301V14.3066Z" fill="#d9d9d9"/>
</svg>
